<svg width="68" height="66" viewBox="0 0 68 66" fill="none" xmlns="http://www.w3.org/2000/svg">
<path fill-rule="evenodd" clip-rule="evenodd" d="M26.3433 1.46243C13.9106 4.04241 3.35514 14.3363 0.734469 26.4366C-4.24216 49.4183 16.8439 69.7914 40.6299 64.9831C50.1821 63.0516 59.1358 56.4358 63.4396 48.1275C64.6332 45.8231 65.8932 42.579 66.2398 40.9174C66.5865 39.2557 67.0922 37.4894 67.3628 36.9919C67.9359 35.9397 68.041 28.4274 67.4755 28.9744C67.2663 29.1765 66.787 27.868 66.4102 26.0662C66.0333 24.2645 64.7297 20.8417 63.5124 18.4596C56.8796 5.47851 41.3071 -1.6426 26.3433 1.46243ZM28.6836 5.44986C20.8113 6.55154 12.628 12.0266 8.37597 19.0373C6.67774 21.8371 4.92775 26.8345 4.69 29.5619L4.50885 31.6455L7.33924 31.8028L10.1696 31.9606V34.0166V36.0731H7.47402C4.89001 36.0731 4.77895 36.1325 4.78974 37.5055C4.80807 39.7761 7.13761 45.5637 9.30056 48.713C13.786 55.2419 21.0453 59.8195 28.7709 60.9899L31.7345 61.4389V59.4345C31.7345 57.4426 31.7485 57.4296 33.8909 57.4296C35.9962 57.4296 36.0474 57.4729 36.0474 59.2527C36.0474 60.9644 36.1542 61.0753 37.7996 61.0649C41.9422 61.0389 49.1179 57.6916 53.6125 53.6886C57.9843 49.7954 62.4201 41.6753 62.453 37.5055C62.4638 36.1533 62.3285 36.0731 60.0383 36.0731H57.6123V34.0182V31.9632L60.1731 31.8044L62.7339 31.6455L62.5528 29.5619C61.9263 22.3674 56.6127 14.1633 49.7141 9.73888C46.2675 7.52874 40.3997 5.36756 37.7996 5.35141C36.0808 5.34047 36.0474 5.38475 36.0474 7.68448V10.0285H33.919H31.7911L31.6277 7.54436L31.4649 5.06075L28.6836 5.44986ZM31.1948 20.936C30.1565 21.4667 28.8329 22.407 28.2534 23.0258C27.3816 23.9566 27.312 24.3244 27.8496 25.1562C28.207 25.7094 28.4997 27.3476 28.4997 28.7962C28.4997 30.885 28.779 31.7215 29.8492 32.8362C30.591 33.6092 31.1193 34.4698 31.0239 34.7474C30.9279 35.0256 29.2895 36.0278 27.3832 36.9742C23.4751 38.9156 22.0303 40.3048 22.0303 42.1211V43.3656H34.1605C47.2881 43.3656 47.1981 43.3869 45.6659 40.5965C44.9025 39.2057 43.5525 38.2473 40.2919 36.781C38.9193 36.1642 37.6324 35.4022 37.4313 35.0881C37.2303 34.7734 37.6863 33.7306 38.4444 32.7706C39.2024 31.8101 39.8229 30.461 39.8223 29.7724C39.8223 29.0837 39.9474 27.5825 40.1005 26.4366C40.431 23.9603 39.9194 23.2248 36.5391 21.3199C33.6402 19.6853 33.6419 19.6858 31.1948 20.936ZM20.0345 24.2426C19.6781 24.59 19.0468 25.1432 18.6322 25.4729C18.2176 25.8021 17.7168 27.4013 17.5189 29.0259C17.2143 31.5314 17.3302 32.2117 18.2812 33.5025C19.6565 35.3683 19.3649 35.8783 16.1754 37.1815C13.469 38.2879 12.3261 39.3797 12.3261 40.8606C12.3261 41.6857 12.8275 41.8029 16.3625 41.8029H20.3984L21.1488 40.0673C21.5618 39.1125 22.5559 37.8326 23.3581 37.2232C24.1598 36.6138 24.6704 35.8871 24.4924 35.609C24.3145 35.3308 24.7696 34.2479 25.5038 33.2024C26.8247 31.322 26.8646 30.8308 26.0236 26.8111C25.7669 25.5844 22.9182 23.5618 21.4912 23.5935C21.0464 23.6034 20.3908 23.8951 20.0345 24.2426ZM43.4436 25.3156C42.3266 26.1996 41.8327 27.1877 41.5033 29.1983C41.1076 31.6174 41.2041 32.0971 42.4398 33.8541C43.1972 34.9313 43.7547 35.8866 43.6781 35.9772C43.6021 36.0673 44.1881 36.6341 44.9807 37.2362C45.7732 37.8389 46.7592 39.1125 47.1722 40.0673C47.9129 41.781 47.9663 41.8029 51.4194 41.8029C53.343 41.8029 54.9167 41.5794 54.9167 41.3065C54.9167 39.7928 53.4626 38.1249 51.4738 37.3571C47.9787 36.0085 47.8121 35.735 49.2435 33.6968C50.2306 32.2914 50.4446 31.4304 50.2387 29.6927C49.8602 26.5022 49.7465 26.2907 47.7916 25.139C45.5861 23.8405 45.2944 23.8519 43.4436 25.3156ZM0.111245 33.2082C0.112862 35.5001 0.207748 36.3731 0.321502 35.148C0.435796 33.9228 0.434179 32.0476 0.318268 30.9808C0.202357 29.914 0.109089 30.9162 0.111245 33.2082Z" fill="#333333"/>
</svg>
