<svg width="74" height="66" viewBox="0 0 74 66" fill="none" xmlns="http://www.w3.org/2000/svg">
<path d="M68.6852 31H34.7904C32.9591 31 31.4746 32.2984 31.4746 33.9001V60.3229C31.4746 61.9245 32.9591 63.2229 34.7904 63.2229H68.6852C70.5164 63.2229 72.0009 61.9245 72.0009 60.3229V33.9001C72.0009 32.2984 70.5164 31 68.6852 31Z" stroke="#333333" stroke-width="4" stroke-linecap="round" stroke-linejoin="round"/>
<path d="M44.3672 42.2793C44.3672 45.8385 47.6662 48.7239 51.7356 48.7239C55.8051 48.7239 59.1041 45.8385 59.1041 42.2793" stroke="#333333" stroke-width="4" stroke-linecap="round" stroke-linejoin="round"/>
<path d="M2 18.1113H68.3158" stroke="#333333" stroke-width="4" stroke-linecap="round" stroke-linejoin="round"/>
<path d="M31.454 10.0234L31.4355 10.0397L31.454 10.0559L31.4725 10.0397L31.454 10.0234Z" stroke="#333333" stroke-width="4" stroke-linecap="round" stroke-linejoin="round"/>
<path d="M22.245 10.0234L22.2266 10.0397L22.245 10.0559L22.2634 10.0397L22.245 10.0234Z" stroke="#333333" stroke-width="4" stroke-linecap="round" stroke-linejoin="round"/>
<path d="M13.034 10.0234L13.0156 10.0397L13.034 10.0559L13.0524 10.0397L13.034 10.0234Z" stroke="#333333" stroke-width="4" stroke-linecap="round" stroke-linejoin="round"/>
<path d="M20.4211 56.7791H9.36846C7.41402 56.7796 5.53949 56.1006 4.15758 54.892C2.77556 53.6832 1.99946 52.0438 2 50.3344V8.44463C1.99946 6.73523 2.77556 5.09572 4.15758 3.88707C5.53949 2.67833 7.41402 1.99953 9.36846 2H60.9473C62.9017 1.99953 64.7763 2.67833 66.1582 3.88707C67.5402 5.09572 68.3163 6.73523 68.3158 8.44463V21.3338" stroke="#333333" stroke-width="4" stroke-linecap="round" stroke-linejoin="round"/>
</svg>
