<svg width="23" height="23" viewBox="0 0 23 23" fill="none" xmlns="http://www.w3.org/2000/svg">
<path d="M11.5046 5.8855C8.39917 5.8855 5.89429 8.39038 5.89429 11.4958C5.89429 14.6013 8.39917 17.1062 11.5046 17.1062C14.6101 17.1062 17.115 14.6013 17.115 11.4958C17.115 8.39038 14.6101 5.8855 11.5046 5.8855ZM11.5046 15.1433C9.4978 15.1433 7.85718 13.5076 7.85718 11.4958C7.85718 9.48413 9.49292 7.84839 11.5046 7.84839C13.5164 7.84839 15.1521 9.48413 15.1521 11.4958C15.1521 13.5076 13.5115 15.1433 11.5046 15.1433ZM18.6531 5.65601C18.6531 6.38354 18.0671 6.9646 17.3445 6.9646C16.6169 6.9646 16.0359 6.37866 16.0359 5.65601C16.0359 4.93335 16.6218 4.34741 17.3445 4.34741C18.0671 4.34741 18.6531 4.93335 18.6531 5.65601ZM22.3689 6.98413C22.2859 5.2312 21.8855 3.67847 20.6013 2.39917C19.322 1.11987 17.7693 0.719482 16.0164 0.631592C14.2097 0.529053 8.79468 0.529053 6.98804 0.631592C5.23999 0.7146 3.68726 1.11499 2.40308 2.39429C1.1189 3.67358 0.723389 5.22632 0.635498 6.97925C0.532959 8.78589 0.532959 14.2009 0.635498 16.0076C0.718506 17.7605 1.1189 19.3132 2.40308 20.5925C3.68726 21.8718 5.23511 22.2722 6.98804 22.3601C8.79468 22.4626 14.2097 22.4626 16.0164 22.3601C17.7693 22.2771 19.322 21.8767 20.6013 20.5925C21.8806 19.3132 22.281 17.7605 22.3689 16.0076C22.4714 14.2009 22.4714 8.79077 22.3689 6.98413ZM20.0349 17.946C19.6541 18.9031 18.9167 19.6404 17.9548 20.0261C16.5144 20.5974 13.0964 20.4656 11.5046 20.4656C9.91284 20.4656 6.48999 20.5925 5.05444 20.0261C4.09741 19.6453 3.36011 18.908 2.97437 17.946C2.40308 16.5056 2.53491 13.0876 2.53491 11.4958C2.53491 9.90405 2.40796 6.4812 2.97437 5.04565C3.35522 4.08862 4.09253 3.35132 5.05444 2.96558C6.49487 2.39429 9.91284 2.52612 11.5046 2.52612C13.0964 2.52612 16.5193 2.39917 17.9548 2.96558C18.9119 3.34644 19.6492 4.08374 20.0349 5.04565C20.6062 6.48608 20.4744 9.90405 20.4744 11.4958C20.4744 13.0876 20.6062 16.5105 20.0349 17.946Z" fill="white"/>
</svg>
