<svg width="17" height="17" viewBox="0 0 17 17" fill="none" xmlns="http://www.w3.org/2000/svg">
<path d="M8.5019 4.14049C6.08985 4.14049 4.14428 6.08606 4.14428 8.4981C4.14428 10.9102 6.08985 12.8557 8.5019 12.8557C10.9139 12.8557 12.8595 10.9102 12.8595 8.4981C12.8595 6.08606 10.9139 4.14049 8.5019 4.14049ZM8.5019 11.3311C6.94317 11.3311 5.66888 10.0606 5.66888 8.4981C5.66888 6.93558 6.93938 5.66509 8.5019 5.66509C10.0644 5.66509 11.3349 6.93558 11.3349 8.4981C11.3349 10.0606 10.0606 11.3311 8.5019 11.3311ZM14.0542 3.96224C14.0542 4.52733 13.5991 4.97864 13.0378 4.97864C12.4727 4.97864 12.0214 4.52354 12.0214 3.96224C12.0214 3.40095 12.4765 2.94584 13.0378 2.94584C13.5991 2.94584 14.0542 3.40095 14.0542 3.96224ZM16.9403 4.99381C16.8758 3.63229 16.5648 2.42627 15.5674 1.43263C14.5737 0.438985 13.3677 0.127998 12.0062 0.0597323C10.603 -0.0199108 6.39704 -0.0199108 4.99381 0.0597323C3.63608 0.124205 2.43006 0.435192 1.43263 1.42883C0.435192 2.42248 0.127998 3.6285 0.0597323 4.99002C-0.0199108 6.39325 -0.0199108 10.5992 0.0597323 12.0024C0.124205 13.3639 0.435192 14.5699 1.43263 15.5636C2.43006 16.5572 3.63229 16.8682 4.99381 16.9365C6.39704 17.0161 10.603 17.0161 12.0062 16.9365C13.3677 16.872 14.5737 16.561 15.5674 15.5636C16.561 14.5699 16.872 13.3639 16.9403 12.0024C17.0199 10.5992 17.0199 6.39704 16.9403 4.99381ZM15.1274 13.508C14.8316 14.2514 14.259 14.824 13.5118 15.1236C12.393 15.5674 9.73826 15.465 8.5019 15.465C7.26553 15.465 4.60697 15.5636 3.49197 15.1236C2.74863 14.8278 2.17596 14.2552 1.87635 13.508C1.43263 12.3892 1.53503 9.73447 1.53503 8.4981C1.53503 7.26174 1.43642 4.60318 1.87635 3.48818C2.17217 2.74484 2.74484 2.17217 3.49197 1.87256C4.61076 1.42883 7.26553 1.53123 8.5019 1.53123C9.73826 1.53123 12.3968 1.43263 13.5118 1.87256C14.2552 2.16838 14.8278 2.74105 15.1274 3.48818C15.5712 4.60697 15.4688 7.26174 15.4688 8.4981C15.4688 9.73447 15.5712 12.393 15.1274 13.508Z" fill="black"/>
</svg>
