<svg width="118" height="42" viewBox="0 0 118 42" fill="none" xmlns="http://www.w3.org/2000/svg">
<line x1="0.0172388" y1="1.00015" x2="58.0172" y2="2.00015" stroke="#002366" stroke-width="2" stroke-dasharray="4 4"/>
<path d="M117.545 41.1621L112.307 30.8715L106.014 40.553L117.545 41.1621ZM56.9999 3.00055L58.6666 4.08389L59.7566 2.407L58.0899 1.32367L56.9999 3.00055ZM61.9999 6.25055L65.3333 8.41722L66.4232 6.74033L63.0899 4.57367L61.9999 6.25055ZM68.6666 10.5839L71.9999 12.7506L73.0899 11.0737L69.7566 8.907L68.6666 10.5839ZM75.3333 14.9172L78.6666 17.0839L79.7566 15.407L76.4232 13.2403L75.3333 14.9172ZM81.9999 19.2506L85.3333 21.4172L86.4232 19.7403L83.0899 17.5737L81.9999 19.2506ZM88.6666 23.5839L91.9999 25.7506L93.0899 24.0737L89.7566 21.907L88.6666 23.5839ZM95.3333 27.9172L98.6666 30.0839L99.7566 28.407L96.4232 26.2403L95.3333 27.9172ZM102 32.2506L105.333 34.4172L106.423 32.7403L103.09 30.5737L102 32.2506ZM108.667 36.5839L112 38.7506L113.09 37.0737L109.757 34.907L108.667 36.5839Z" fill="#002366"/>
</svg>
