<svg width="19" height="19" viewBox="0 0 19 19" fill="none" xmlns="http://www.w3.org/2000/svg">
<path d="M4.42555 18.3746H0.616016V6.10682H4.42555V18.3746ZM2.51873 4.43338C1.30057 4.43338 0.3125 3.42439 0.3125 2.20623C0.3125 1.6211 0.544941 1.05994 0.95869 0.64619C1.37244 0.232441 1.9336 0 2.51873 0C3.10386 0 3.66502 0.232441 4.07877 0.64619C4.49252 1.05994 4.72496 1.6211 4.72496 2.20623C4.72496 3.42439 3.73648 4.43338 2.51873 4.43338ZM18.6834 18.3746H14.8821V12.4027C14.8821 10.9795 14.8534 9.15428 12.9014 9.15428C10.9208 9.15428 10.6173 10.7006 10.6173 12.3002V18.3746H6.81184V6.10682H10.4655V7.78025H10.5188C11.0274 6.81639 12.2698 5.7992 14.1233 5.7992C17.9788 5.7992 18.6875 8.33807 18.6875 11.6357V18.3746H18.6834Z" fill="white"/>
</svg>
