<svg width="17" height="17" viewBox="0 0 17 17" fill="none" xmlns="http://www.w3.org/2000/svg">
<path d="M3.80527 16.9996H0.280804V5.64984H3.80527V16.9996ZM2.04114 4.10163C0.914129 4.10163 0 3.16815 0 2.04114C8.06665e-09 1.49979 0.215048 0.980623 0.597836 0.597836C0.980623 0.215048 1.49979 0 2.04114 0C2.58248 0 3.10165 0.215048 3.48444 0.597836C3.86723 0.980623 4.08228 1.49979 4.08228 2.04114C4.08228 3.16815 3.16777 4.10163 2.04114 4.10163ZM16.9962 16.9996H13.4793V11.4746C13.4793 10.1579 13.4528 8.46926 11.6469 8.46926C9.81446 8.46926 9.53366 9.89984 9.53366 11.3798V16.9996H6.01299V5.64984H9.39326V7.19806H9.44259C9.91313 6.30632 11.0625 5.36525 12.7773 5.36525C16.3443 5.36525 17 7.71413 17 10.765V16.9996H16.9962Z" fill="black"/>
</svg>
