<svg width="63" height="61" viewBox="0 0 63 61" fill="none" xmlns="http://www.w3.org/2000/svg">
<path fill-rule="evenodd" clip-rule="evenodd" d="M13.1767 0.350489C12.6967 0.631866 12.5966 1.17628 12.5966 3.50764V6.32474H6.69615C2.54891 6.32474 0.67734 6.44376 0.397896 6.7248C0.161878 6.96217 0.000112225 8.10502 0.000112225 9.5349C0.000112225 13.0501 -0.110937 12.9924 6.65338 12.9924H12.2651V15.3481C12.2651 19.0797 12.1368 18.9934 17.68 18.9934C20.9159 18.9934 22.5343 18.867 22.8064 18.5933C23.0951 18.3029 23.2042 15.8425 23.2042 9.61558C23.2042 2.26245 23.1299 0.963584 22.6834 0.514181C22.2634 0.0921164 21.3479 -0.00756578 17.9597 0.000435449C15.6479 0.00610299 13.4956 0.163461 13.1767 0.350489ZM27.182 9.65859V12.9924H44.3454C59.3435 12.9924 61.602 12.9271 62.2457 12.4734C62.8918 12.0183 62.9826 11.6572 62.9826 9.53957C62.9826 8.10602 62.8208 6.96217 62.5848 6.7248C62.2855 6.42376 57.8555 6.32474 44.6845 6.32474H27.182V9.65859ZM34.8808 21.7188C34.6299 21.9712 34.4747 23.1197 34.4747 24.7276V27.328H17.8785C7.07238 27.328 1.05888 27.4483 0.641208 27.673C0.0902767 27.9697 0.000112225 28.3895 0.000112225 30.6618C0.000112225 32.9342 0.0902767 33.3539 0.641208 33.6506C1.05888 33.8753 7.06841 33.9957 17.8656 33.9957H34.4489L34.5447 36.9128L34.6405 39.8299H39.7785H44.9166V30.6618V21.4937L40.1017 21.4021C36.6377 21.3357 35.1732 21.4247 34.8808 21.7188ZM49.0602 30.6618V33.9957H55.5006C63.2163 33.9957 62.9826 34.1054 62.9826 30.4831C62.9826 28.3875 62.8865 27.9664 62.3415 27.673C61.9636 27.4697 59.1029 27.328 55.3803 27.328H49.0602V30.6618ZM12.8177 42.5527C12.6961 42.6747 12.5966 44.0249 12.5966 45.5531V48.3312H6.93946C3.67398 48.3312 1.01148 48.4772 0.641208 48.6763C0.0902767 48.973 0.000112225 49.3927 0.000112225 51.6651C0.000112225 53.9374 0.0902767 54.3571 0.641208 54.6539C1.00916 54.8519 3.62227 54.9989 6.77371 54.9989H12.2651V57.3546C12.2651 61.0862 12.1368 60.9998 17.68 60.9998C20.9159 60.9998 22.5343 60.8735 22.8064 60.5998C23.3726 60.0303 23.3726 43.2998 22.8064 42.7304C22.3785 42.2999 13.2304 42.1373 12.8177 42.5527ZM27.182 51.6651V54.9989H44.6845C57.8555 54.9989 62.2855 54.8999 62.5848 54.5988C63.2021 53.9781 63.1063 49.5031 62.4618 48.855C62.0014 48.3922 59.919 48.3312 44.5616 48.3312H27.182V51.6651Z" fill="white"/>
</svg>
