<svg width="21" height="21" viewBox="0 0 21 21" fill="none" xmlns="http://www.w3.org/2000/svg">
<path d="M19.0909 0H1.90909C0.854318 0 0 0.854318 0 1.90909V19.0909C0 20.1457 0.854318 21 1.90909 21H19.0909C20.1457 21 21 20.1457 21 19.0909V1.90909C21 0.854318 20.1447 0 19.0909 0ZM17.8395 9.04336C17.7154 9.05482 17.5904 9.06246 17.4644 9.06246C16.0373 9.06246 14.783 8.32936 14.0528 7.21923C14.0528 10.1296 14.0528 13.4419 14.0528 13.4973C14.0528 16.0602 11.9748 18.1373 9.41277 18.1373C6.85077 18.1364 4.77273 16.0583 4.77273 13.4963C4.77273 10.9334 6.85077 8.85627 9.41277 8.85627C9.51014 8.85627 9.60464 8.86486 9.69914 8.87059V11.1577C9.60368 11.1462 9.51109 11.129 9.41277 11.129C8.10505 11.129 7.04455 12.1895 7.04455 13.4973C7.04455 14.805 8.10409 15.8655 9.41277 15.8655C10.7215 15.8655 11.8765 14.8346 11.8765 13.5269C11.8765 13.4744 11.8994 2.86459 11.8994 2.86459H14.0843C14.2895 4.81855 15.8674 6.36109 17.8395 6.50236V9.04336Z" fill="white"/>
</svg>
