<svg width="17" height="17" viewBox="0 0 17 17" fill="none" xmlns="http://www.w3.org/2000/svg">
<path d="M15.4545 0H1.54545C0.691591 0 0 0.691591 0 1.54545V15.4545C0 16.3084 0.691591 17 1.54545 17H15.4545C16.3084 17 17 16.3084 17 15.4545V1.54545C17 0.691591 16.3076 0 15.4545 0ZM14.4415 7.32082C14.341 7.33009 14.2398 7.33627 14.1378 7.33627C12.9826 7.33627 11.9672 6.74282 11.3761 5.84414C11.3761 8.20018 11.3761 10.8815 11.3761 10.9264C11.3761 13.0011 9.69386 14.6826 7.61986 14.6826C5.54586 14.6818 3.86364 12.9996 3.86364 10.9256C3.86364 8.85082 5.54586 7.16936 7.61986 7.16936C7.69868 7.16936 7.77518 7.17632 7.85168 7.18095V9.03241C7.77441 9.02314 7.69946 9.00923 7.61986 9.00923C6.56123 9.00923 5.70273 9.86773 5.70273 10.9264C5.70273 11.985 6.56046 12.8435 7.61986 12.8435C8.67927 12.8435 9.61427 12.009 9.61427 10.9503C9.61427 10.9078 9.63282 2.31895 9.63282 2.31895H11.4016C11.5677 3.90073 12.845 5.14946 14.4415 5.26382V7.32082Z" fill="black"/>
</svg>
