<svg width="21" height="19" viewBox="0 0 21 19" fill="none" xmlns="http://www.w3.org/2000/svg">
<path d="M18.8413 5.22327C18.8547 5.40981 18.8547 5.59639 18.8547 5.78293C18.8547 11.4726 14.5241 18.0285 6.60913 18.0285C4.17067 18.0285 1.90546 17.3222 0 16.0964C0.346459 16.1363 0.679547 16.1497 1.03934 16.1497C3.05136 16.1497 4.90354 15.4701 6.3826 14.3109C4.49047 14.2709 2.90481 13.0317 2.35848 11.3261C2.625 11.366 2.89148 11.3927 3.17133 11.3927C3.55774 11.3927 3.94419 11.3394 4.30393 11.2461C2.33186 10.8463 0.852756 9.11413 0.852756 7.02213V6.96885C1.4257 7.28865 2.092 7.48852 2.79817 7.51514C1.6389 6.74228 0.879416 5.42314 0.879416 3.93074C0.879416 3.13127 1.09257 2.3984 1.46569 1.7588C3.58436 4.37047 6.76901 6.07603 10.34 6.26261C10.2734 5.94281 10.2334 5.60972 10.2334 5.27659C10.2334 2.90474 12.1522 0.972656 14.5374 0.972656C15.7766 0.972656 16.8959 1.49232 17.682 2.33179C18.6547 2.14525 19.5875 1.78546 20.4136 1.29246C20.0938 2.29184 19.4143 3.13131 18.5215 3.66427C19.3876 3.57104 20.2271 3.33114 20.9999 2.99805C20.4137 3.8508 19.6808 4.61029 18.8413 5.22327Z" fill="white"/>
</svg>
