<svg width="17" height="14" viewBox="0 0 17 14" fill="none" xmlns="http://www.w3.org/2000/svg">
<path d="M15.2526 3.44099C15.2634 3.592 15.2634 3.74304 15.2634 3.89404C15.2634 8.5 11.7577 13.8071 5.35027 13.8071C3.37627 13.8071 1.54252 13.2354 0 12.2431C0.280468 12.2754 0.550112 12.2862 0.841371 12.2862C2.47016 12.2862 3.96955 11.7361 5.16689 10.7976C3.63516 10.7653 2.35152 9.76209 1.90925 8.38137C2.12501 8.41371 2.34073 8.43529 2.56728 8.43529C2.88008 8.43529 3.19292 8.39212 3.48415 8.31665C1.8877 7.99302 0.690329 6.59075 0.690329 4.89722V4.85408C1.15415 5.11297 1.69353 5.27477 2.26519 5.29632C1.32674 4.67067 0.711911 3.60279 0.711911 2.39465C0.711911 1.74745 0.884468 1.15418 1.18652 0.636407C2.90163 2.75062 5.4797 4.13132 8.37054 4.28236C8.31662 4.02347 8.28425 3.75383 8.28425 3.48415C8.28425 1.56407 9.83756 0 11.7684 0C12.7716 0 13.6776 0.420685 14.3141 1.10026C15.1015 0.949248 15.8566 0.657989 16.5254 0.258886C16.2665 1.06792 15.7164 1.74749 14.9937 2.17893C15.6948 2.10346 16.3744 1.90925 17 1.63961C16.5255 2.32994 15.9321 2.94476 15.2526 3.44099Z" fill="black"/>
</svg>
