<svg width="84" height="79" viewBox="0 0 84 79" fill="none" xmlns="http://www.w3.org/2000/svg">
<path fill-rule="evenodd" clip-rule="evenodd" d="M26.7932 3.23286C22.0378 4.79976 18.6104 8.75995 17.6933 13.7475C16.7172 19.0569 19.6441 24.7467 24.6443 27.2591L26.766 28.325L24.1548 28.9439C18.2473 30.3437 11.8252 34.4812 8.44171 39.0672C4.58024 44.3012 1.61381 53.1066 3.53024 53.6458C4.42527 53.8977 9.58693 54.5294 14.4767 54.9859C17.5669 55.2746 18.6694 55.2677 18.7719 54.9593C19.1459 53.8307 23.4668 48.5854 25.5031 46.7877C27.7313 44.8211 33.3745 41.1445 34.183 41.1332C34.3999 41.1299 34.8025 40.9843 35.0773 40.8096C35.4778 40.5544 35.3184 40.0683 34.2732 38.3577C32.5367 35.5151 31.8513 33.4662 31.6101 30.399C31.0812 23.6604 34.767 17.1245 40.773 14.1516C43.3604 12.8709 43.3491 12.9142 41.8719 9.86268C40.8143 7.67762 38.4894 5.35312 36.1548 4.14592C34.5367 3.30968 33.6761 3.1262 30.957 3.03919C29.1647 2.98167 27.291 3.06904 26.7932 3.23286ZM44.5345 16.7029C41.3252 17.7601 38.2059 20.4407 36.6462 23.482C35.3 26.1061 35.0882 30.9852 36.1921 33.9311C37.2146 36.6593 39.6702 39.3646 42.3429 40.7076L44.4665 41.7747L41.4682 42.5709C35.6157 44.1254 30.4388 47.384 26.7993 51.8048C24.6041 54.4711 22.0211 59.6505 21.2133 63.0053C20.428 66.2669 20.4664 66.9331 21.4527 67.1617C25.636 68.1319 43.0374 69.2911 50.6448 69.1065L55.4879 68.9889L55.4234 64.9384C55.3383 59.6152 55.2482 59.7055 60.6615 59.7055H64.788L64.8897 55.2458L64.9914 50.7861L66.5531 50.6729C68.5285 50.5302 68.4159 50.1669 65.7156 47.972C62.7749 45.5816 58.6114 43.4894 54.9303 42.5523L51.8176 41.7597L53.8785 40.7761C56.3746 39.5849 58.7378 37.0947 60.0391 34.2853C60.8454 32.5451 60.9931 31.7315 60.9768 29.1248C60.9613 26.5513 60.7962 25.6911 59.9978 24.0146C58.6212 21.1244 56.8699 19.2407 54.2474 17.83C52.2003 16.7288 51.6108 16.5875 48.6983 16.5012C46.9061 16.4481 45.0324 16.5391 44.5345 16.7029ZM66.8623 53.3953C66.7294 53.5286 66.6208 55.4894 66.6208 57.7523V61.8669L62.3664 61.9692L58.1121 62.0718V64.6202V67.1686L62.3552 67.2709L66.5979 67.3736L66.7 71.6396L66.8018 75.906L69.4152 76.0126L72.0286 76.1193L72.1307 71.826L72.2328 67.5327L76.1942 67.4286C78.3728 67.3714 80.3685 67.1464 80.6296 66.9291C81.2585 66.4041 81.2585 62.8364 80.6296 62.3114C80.3685 62.0941 78.3728 61.8691 76.1942 61.8119L72.2328 61.7078L72.1307 57.4301L72.029 53.1525H69.5662C68.2117 53.1525 66.9948 53.2617 66.8623 53.3953Z" fill="white"/>
</svg>
